<?xml version="1.0" encoding="iso-8859-1"?>
<!-- Generator: Adobe Illustrator 19.0.0, SVG Export Plug-In . SVG Version: 6.00 Build 0)  -->
<svg xmlns="http://www.w3.org/2000/svg" xmlns:xlink="http://www.w3.org/1999/xlink" version="1.1" id="Layer_1" x="0px" y="0px" viewBox="0 0 512 512" style="enable-background:new 0 0 512 512;" xml:space="preserve" width="512" height="512">
<g>
	<g>
		<path d="M485.186,7.208H26.815C12.029,7.208,0,19.238,0,34.023v339.574c0,14.786,12.029,26.815,26.815,26.815h178.359    c-5.405,17.567-12.967,34.126-22.557,49.38h-15.32c-20.923,0-37.945,17.022-37.945,37.945c0,9.403,7.65,17.054,17.054,17.054    h219.188c9.403,0,17.054-7.65,17.054-17.054c0-20.923-17.021-37.945-37.944-37.945h-15.321    c-9.59-15.256-17.153-31.815-22.556-49.38h178.359c14.785,0,26.814-12.029,26.814-26.815V34.023    C512,19.238,499.971,7.208,485.186,7.208z M26.815,22.208h458.371c6.515,0,11.814,5.3,11.814,11.815v295.672H15V34.023    C15,27.509,20.3,22.208,26.815,22.208z M367.647,487.738c0,1.132-0.921,2.054-2.054,2.054H146.406    c-1.132,0-2.054-0.921-2.054-2.054c0-12.652,10.293-22.945,22.945-22.945h177.406    C357.354,464.793,367.647,475.086,367.647,487.738z M311.9,449.793H200.1c8.796-15.418,15.739-31.96,20.72-49.38h70.36    C296.16,417.831,303.103,434.374,311.9,449.793z M485.186,385.413H26.815c-6.515,0-11.815-5.3-11.815-11.815v-28.902h482v28.902    C497,380.112,491.7,385.413,485.186,385.413z"/>
		<path d="M35.499,314.696h441.002c4.143,0,7.5-3.358,7.5-7.5V185.418c0-4.142-3.357-7.5-7.5-7.5s-7.5,3.358-7.5,7.5v114.278H42.999    V185.471c0-4.142-3.358-7.5-7.5-7.5s-7.5,3.358-7.5,7.5v121.725C27.999,311.338,31.357,314.696,35.499,314.696z"/>
		<path d="M35.499,162.919c4.142,0,7.5-3.358,7.5-7.5V51.208h426.002v104.212c0,4.142,3.357,7.5,7.5,7.5s7.5-3.358,7.5-7.5V43.708    c0-4.142-3.357-7.5-7.5-7.5H35.499c-4.142,0-7.5,3.358-7.5,7.5v111.712C27.999,159.562,31.357,162.919,35.499,162.919z"/>
		<path d="M120.506,82.455c0-7.372-5.998-13.369-13.369-13.369h-29.26c-7.372,0-13.369,5.998-13.369,13.369v29.26    c0,7.372,5.998,13.369,13.369,13.369h29.26c7.372,0,13.369-5.998,13.369-13.369V82.455z M105.506,110.084H79.508V84.086h25.998    V110.084z"/>
		<path d="M120.506,156.558c0-7.372-5.998-13.37-13.369-13.37h-29.26c-7.372,0-13.369,5.998-13.369,13.37v29.26    c0,7.372,5.998,13.369,13.369,13.369h29.26c7.372,0,13.369-5.998,13.369-13.369V156.558z M105.506,184.187H79.508v-25.999h25.998    V184.187z"/>
		<path d="M107.137,216.291h-29.26c-7.372,0-13.369,5.998-13.369,13.369v29.26c0,7.372,5.998,13.369,13.369,13.369h29.26    c7.372,0,13.369-5.998,13.369-13.369v-29.26C120.506,222.288,114.508,216.291,107.137,216.291z M105.506,257.289H79.508v-25.998    h25.998V257.289z"/>
		<path d="M193.662,261.901c0.001,0.046,0.002,0.092,0.004,0.138c0.001,0.023,0.002,0.047,0.003,0.07    c0.003,0.07,0.007,0.141,0.012,0.211c0,0.002,0,0.004,0.001,0.007c0.005,0.07,0.012,0.14,0.019,0.21    c0.001,0.013,0.003,0.025,0.004,0.038c0.007,0.066,0.015,0.131,0.024,0.196c0.001,0.005,0.001,0.011,0.002,0.016    c0.183,1.348,0.733,2.655,1.65,3.761c0.001,0.001,0.002,0.003,0.004,0.004c0.045,0.054,0.09,0.107,0.137,0.16    c0.009,0.01,0.018,0.021,0.027,0.031c0.04,0.045,0.08,0.089,0.121,0.133c0.012,0.013,0.023,0.026,0.035,0.038    c0.05,0.054,0.102,0.107,0.154,0.159c0.045,0.045,0.09,0.089,0.136,0.133c0.031,0.029,0.062,0.058,0.093,0.086    c0.015,0.014,0.029,0.027,0.044,0.041c1.319,1.194,2.96,1.836,4.625,1.926c0.013,0.001,0.027,0.002,0.04,0.002    c0.046,0.002,0.092,0.004,0.139,0.005c0.014,0,0.029,0.001,0.043,0.002c0.061,0.001,0.122,0.002,0.183,0.002    c0.063,0,0.126-0.001,0.189-0.002c0.014,0,0.028-0.001,0.042-0.002c0.049-0.002,0.097-0.003,0.146-0.006    c0.017-0.001,0.035-0.002,0.052-0.003c0.047-0.003,0.093-0.005,0.14-0.009c0.014-0.001,0.028-0.002,0.042-0.004    c0.05-0.004,0.101-0.009,0.151-0.014c0.011-0.001,0.022-0.002,0.033-0.004c0.054-0.006,0.108-0.012,0.162-0.019    c0.007-0.001,0.014-0.002,0.022-0.003c0.227-0.03,0.452-0.07,0.676-0.12l118.861-25.023c10.375-2.184,18.021-11.116,18.594-21.72    c2.379-44.047,14.28-61.77,19.42-67.441l28.924-28.734c1.414-1.405,2.211-3.315,2.214-5.309c0.003-1.993-0.787-3.906-2.196-5.315    l-41.244-41.244c-1.407-1.407-3.314-2.197-5.304-2.197h-0.013c-1.993,0.003-3.903,0.8-5.308,2.214l-28.724,28.914    c-5.66,5.135-23.38,17.051-67.451,19.429c-10.604,0.573-19.536,8.218-21.721,18.594l-25.027,118.88    c-0.057,0.258-0.101,0.517-0.131,0.779c-0.001,0.013-0.003,0.025-0.004,0.038c-0.006,0.058-0.012,0.116-0.017,0.175    c-0.002,0.02-0.003,0.04-0.005,0.06c-0.004,0.056-0.008,0.111-0.011,0.167c-0.001,0.017-0.002,0.034-0.003,0.051    c-0.003,0.068-0.006,0.135-0.007,0.203c-0.001,0.025-0.001,0.05-0.001,0.076c-0.001,0.045-0.001,0.089,0,0.134    C193.661,261.844,193.661,261.873,193.662,261.901z M342.101,90.228l30.603,30.603l-18.408,18.287l-30.481-30.482L342.101,90.228z     M233.545,144.345c0.788-3.741,4.016-6.499,7.851-6.706c18.536-1,50.909-4.825,71.248-18.961l31.608,31.609    c-14.135,20.337-17.96,52.71-18.961,71.247c-0.207,3.835-2.965,7.063-6.705,7.851l-94.283,19.849l36.968-36.967    c3.882,2.097,8.185,3.145,12.489,3.145c6.723,0,13.445-2.559,18.563-7.677c10.235-10.236,10.235-26.892,0-37.127    c-4.959-4.958-11.552-7.689-18.563-7.689c-7.013,0-13.605,2.731-18.564,7.689c-4.958,4.958-7.689,11.551-7.689,18.564    c0,4.436,1.093,8.703,3.151,12.496l-36.961,36.961L233.545,144.345z M262.506,189.172c0-3.006,1.171-5.832,3.297-7.957    c2.125-2.125,4.951-3.296,7.957-3.296c3.005,0,5.831,1.17,7.956,3.296c4.388,4.387,4.388,11.526,0,15.914    c-4.386,4.387-11.525,4.389-15.913,0C263.677,195.003,262.506,192.177,262.506,189.172z"/>
	</g>
</g>















</svg>
