<?xml version="1.0" encoding="iso-8859-1"?>
<!-- Generator: Adobe Illustrator 19.0.0, SVG Export Plug-In . SVG Version: 6.00 Build 0)  -->
<svg xmlns="http://www.w3.org/2000/svg" xmlns:xlink="http://www.w3.org/1999/xlink" version="1.1" id="Layer_1" x="0px" y="0px" viewBox="0 0 512 512" style="enable-background:new 0 0 512 512;" xml:space="preserve" width="512" height="512">
<g>
	<g>
		<g>
			<g>
				<g>
					<g>
						<g>
							<g>
								<circle cx="286.845" cy="86.556" r="7.888"/>
								<circle cx="324.661" cy="86.556" r="7.888"/>
								<circle cx="362.477" cy="86.556" r="7.888"/>
							</g>
						</g>
					</g>
				</g>
			</g>
		</g>
	</g>
	<g>
		<path d="M42.009,93.429h145.364c4.142,0,7.5-3.358,7.5-7.5s-3.358-7.5-7.5-7.5H42.009c-4.142,0-7.5,3.358-7.5,7.5    S37.867,93.429,42.009,93.429z"/>
		<path d="M259.25,446.266H22.375c-4.067,0-7.375-3.309-7.375-7.375V122.385h380.539v105.735c0,4.142,3.358,7.5,7.5,7.5    s7.5-3.358,7.5-7.5V73.103c0-12.338-10.038-22.375-22.375-22.375H22.375C10.038,50.727,0,60.765,0,73.103v365.788    c0,12.338,10.038,22.375,22.375,22.375H259.25c4.142,0,7.5-3.358,7.5-7.5S263.392,446.266,259.25,446.266z M22.375,65.727h365.788    c4.067,0,7.375,3.309,7.375,7.375v34.282H15V73.103C15,69.036,18.309,65.727,22.375,65.727z"/>
		<path d="M512,341.728c0-18.955-14.205-34.655-32.529-37.014v-67.242c0-5.34-2.714-10.201-7.26-13.002    c-4.546-2.802-10.107-3.041-14.837-0.66l-137.628,68.235c0.319-3.498,0.48-7.01,0.48-10.509    c0-63.387-51.569-114.956-114.956-114.956S90.313,218.149,90.313,281.536s51.569,114.956,114.956,114.956    c14.51,0,28.613-2.662,41.982-7.916c3.239,1.651,6.903,2.583,10.781,2.583h3.862l13.613,50.907    c1.786,6.679,6.066,12.262,12.051,15.722c3.301,1.908,6.903,3.043,10.589,3.379c0.398,0.065,0.807,0.1,1.224,0.1h0.56    c0.179,0.004,0.358,0.006,0.538,0.006c0.179,0,0.359-0.003,0.538-0.006h87.156c12.338,0,22.375-10.038,22.375-22.375v-2.465    l46.795,23.201c2.184,1.099,4.532,1.644,6.874,1.644c2.774,0,5.538-0.766,8.003-2.285c4.546-2.801,7.26-7.662,7.26-13.001v-67.243    C497.795,376.383,512,360.683,512,341.728z M105.313,281.536c0-55.116,44.84-99.956,99.956-99.956s99.956,44.84,99.956,99.956    c0,3.584-0.194,7.184-0.578,10.761h-35.296c3.14-2.674,4.973-6.594,4.973-10.78c0-4.754-2.363-9.166-6.321-11.8l-84.438-56.171    c-4.356-2.898-9.929-3.164-14.542-0.693c-4.613,2.472-7.479,7.258-7.479,12.491v112.343c0,5.233,2.866,10.02,7.479,12.491    c2.101,1.125,4.4,1.684,6.694,1.684c2.742,0,5.475-0.798,7.848-2.376l50.656-33.698c-0.001,0.107-0.002,0.215-0.002,0.323v51.235    c0,3.297,0.674,6.44,1.89,9.298c-9.915,3.221-20.251,4.849-30.84,4.849C150.154,381.492,105.313,336.652,105.313,281.536z     M176.545,336.14V226.891l82.112,54.625L176.545,336.14z M252.826,374.452c-0.145-0.124-0.295-0.241-0.449-0.353    c-1.929-1.618-3.158-4.045-3.158-6.754V316.11c0-4.86,3.954-8.813,8.813-8.813h53.015c0.079,0.001,0.158,0.001,0.237,0h2.21    v68.862h-5.56c-0.095-0.002-0.19-0.002-0.286,0h-39.845c-0.095-0.002-0.19-0.002-0.286,0h-9.486    C256.086,376.159,254.286,375.525,252.826,374.452z M277.422,391.159h24.603l10.934,40.892c1.55,5.797-1.905,11.774-7.7,13.324    l-1.938,0.518c-5.794,1.551-11.774-1.904-13.324-7.701L277.422,391.159z M395.539,438.891c0,4.067-3.309,7.375-7.375,7.375    h-62.495c2.669-5.427,3.464-11.803,1.783-18.091l-9.898-37.017h1.685l76.301,37.83V438.891z M464.471,445.984    c0,0.085,0,0.152-0.129,0.231c-0.129,0.08-0.19,0.049-0.305-0.008l-57.553-28.535c-0.077-0.04-0.155-0.078-0.233-0.116    l-77.755-38.551v-74.557l135.582-67.221c0.076-0.038,0.136-0.067,0.265,0.012c0.129,0.08,0.129,0.147,0.129,0.232V445.984z     M479.471,363.53v-43.604C489.484,322.124,497,331.065,497,341.728S489.484,361.332,479.471,363.53z"/>
	</g>
</g>















</svg>
